{
    "asset" : {
        "generator" : "Khronos glTF Blender I/O v1.7.33",
        "version" : "2.0"
    },
    "scene" : 0,
    "scenes" : [
        {
            "name" : "Scene",
            "nodes" : [
                1
            ]
        }
    ],
    "nodes" : [
        {
            "mesh" : 0,
            "name" : "Curve.002",
            "rotation" : [
                0.7071068286895752,
                0,
                0,
                0.7071068286895752
            ],
            "scale" : [
                10,
                1,
                10
            ],
            "translation" : [
                -2.5,
                -0.30000001192092896,
                0
            ]
        },
        {
            "children" : [
                0
            ],
            "mesh" : 1,
            "name" : "Text.001"
        }
    ],
    "materials" : [
        {
            "doubleSided" : true,
            "emissiveFactor" : [
                1,
                1,
                1
            ],
            "name" : "Material.001",
            "pbrMetallicRoughness" : {
                "baseColorFactor" : [
                    0.800000011920929,
                    0.800000011920929,
                    0.800000011920929,
                    1
                ],
                "metallicFactor" : 0,
                "roughnessFactor" : 0.5
            }
        }
    ],
    "meshes" : [
        {
            "name" : "Curve.002",
            "primitives" : [
                {
                    "attributes" : {
                        "POSITION" : 0,
                        "NORMAL" : 1,
                        "TEXCOORD_0" : 2
                    },
                    "indices" : 3,
                    "material" : 0
                }
            ]
        },
        {
            "name" : "Text.003",
            "primitives" : [
                {
                    "attributes" : {
                        "POSITION" : 4,
                        "NORMAL" : 5,
                        "TEXCOORD_0" : 6
                    },
                    "indices" : 7,
                    "material" : 0
                }
            ]
        }
    ],
    "accessors" : [
        {
            "bufferView" : 0,
            "componentType" : 5126,
            "count" : 11736,
            "max" : [
                0.054402269423007965,
                0.009999999776482582,
                0
            ],
            "min" : [
                0,
                -0.009999999776482582,
                -0.05439078062772751
            ],
            "type" : "VEC3"
        },
        {
            "bufferView" : 1,
            "componentType" : 5126,
            "count" : 11736,
            "type" : "VEC3"
        },
        {
            "bufferView" : 2,
            "componentType" : 5126,
            "count" : 11736,
            "type" : "VEC2"
        },
        {
            "bufferView" : 3,
            "componentType" : 5123,
            "count" : 21000,
            "type" : "SCALAR"
        },
        {
            "bufferView" : 4,
            "componentType" : 5126,
            "count" : 39592,
            "max" : [
                1.7632620334625244,
                0.12417406588792801,
                0.020000005140900612
            ],
            "min" : [
                -2.739461898803711,
                -0.5105410814285278,
                -0.020000021904706955
            ],
            "type" : "VEC3"
        },
        {
            "bufferView" : 5,
            "componentType" : 5126,
            "count" : 39592,
            "type" : "VEC3"
        },
        {
            "bufferView" : 6,
            "componentType" : 5126,
            "count" : 39592,
            "type" : "VEC2"
        },
        {
            "bufferView" : 7,
            "componentType" : 5123,
            "count" : 65586,
            "type" : "SCALAR"
        }
    ],
    "bufferViews" : [
        {
            "buffer" : 0,
            "byteLength" : 140832,
            "byteOffset" : 0
        },
        {
            "buffer" : 0,
            "byteLength" : 140832,
            "byteOffset" : 140832
        },
        {
            "buffer" : 0,
            "byteLength" : 93888,
            "byteOffset" : 281664
        },
        {
            "buffer" : 0,
            "byteLength" : 42000,
            "byteOffset" : 375552
        },
        {
            "buffer" : 0,
            "byteLength" : 475104,
            "byteOffset" : 417552
        },
        {
            "buffer" : 0,
            "byteLength" : 475104,
            "byteOffset" : 892656
        },
        {
            "buffer" : 0,
            "byteLength" : 316736,
            "byteOffset" : 1367760
        },
        {
            "buffer" : 0,
            "byteLength" : 131172,
            "byteOffset" : 1684496
        }
    ],
    "buffers" : [
        {
            "byteLength" : 1815668,
            "uri" : "data:application/octet-stream;base64,"
        }
    ]
}
