<?xml version="1.0" standalone="no"?>
<!DOCTYPE svg PUBLIC "-//W3C//DTD SVG 20010904//EN"
 "http://www.w3.org/TR/2001/REC-SVG-20010904/DTD/svg10.dtd">
<svg version="1.0" xmlns="http://www.w3.org/2000/svg"
 width="300.000000pt" height="300.000000pt" viewBox="0 0 300.000000 300.000000"
 preserveAspectRatio="xMidYMid meet">
<metadata>
Created by potrace 1.10, written by Peter Selinger 2001-2011
</metadata>
<g transform="translate(0.000000,300.000000) scale(0.100000,-0.100000)"
fill="#000000" stroke="none">
<path d="M1230 2973 c-47 -8 -134 -31 -194 -50 -114 -37 -342 -146 -315 -151
22 -4 91 27 84 38 -3 6 0 10 7 10 7 1 203 -36 436 -82 346 -68 422 -86 419
-98 -3 -8 -187 -334 -411 -724 -223 -391 -405 -710 -403 -711 1 -1 271 -55
599 -121 505 -101 598 -122 598 -136 0 -22 -47 -58 -74 -58 -12 0 -301 56
-642 125 -340 69 -620 125 -622 125 -1 0 9 17 22 38 13 20 198 343 411 717
213 374 389 683 391 686 2 3 -180 43 -404 88 -224 45 -416 84 -428 87 -15 4
-44 -13 -110 -64 -177 -137 -338 -331 -436 -525 -82 -164 -149 -419 -147 -561
l1 -61 13 40 c7 22 23 92 34 155 20 105 49 215 71 265 5 11 21 49 36 85 60
147 228 391 294 425 33 17 44 19 36 7 -3 -5 36 -14 87 -21 51 -7 110 -16 132
-21 22 -6 110 -23 195 -40 197 -39 187 -36 184 -63 -1 -12 -3 -28 -3 -35 -1
-7 -5 -10 -11 -7 -6 4 -10 -5 -10 -19 0 -14 -4 -26 -10 -26 -5 0 -10 -6 -10
-14 0 -8 -7 -17 -16 -20 -8 -3 -13 -10 -10 -15 3 -5 -1 -14 -9 -21 -8 -7 -12
-16 -10 -21 3 -4 -2 -12 -11 -17 -9 -5 -15 -12 -15 -15 3 -19 0 -30 -5 -24 -7
7 -44 -60 -44 -80 0 -7 -4 -13 -10 -13 -5 0 -10 -7 -10 -15 0 -9 -6 -18 -14
-21 -8 -3 -12 -12 -9 -20 3 -7 -2 -17 -11 -20 -9 -3 -13 -10 -10 -15 3 -5 -1
-12 -10 -15 -8 -3 -12 -12 -9 -20 3 -7 -2 -17 -11 -20 -9 -3 -15 -11 -14 -18
2 -6 -1 -11 -5 -11 -5 0 -18 -22 -30 -50 -11 -27 -24 -52 -27 -55 -3 -3 -14
-22 -23 -42 -10 -21 -22 -38 -27 -38 -5 0 -7 -6 -4 -13 2 -7 -7 -26 -21 -41
-14 -15 -23 -31 -20 -36 3 -5 0 -12 -8 -17 -18 -11 -47 -59 -47 -78 0 -9 -4
-13 -10 -10 -5 3 -10 -3 -10 -14 0 -12 -4 -21 -10 -21 -5 0 -10 -9 -10 -20 0
-11 -7 -23 -15 -26 -8 -4 -13 -10 -10 -14 3 -5 -2 -15 -10 -23 -8 -9 -15 -23
-15 -32 0 -10 -5 -13 -12 -9 -6 4 -8 3 -4 -4 3 -6 -1 -17 -10 -26 -8 -9 -12
-21 -8 -27 4 -7 3 -9 -3 -6 -6 4 -17 -8 -24 -26 -7 -17 -19 -35 -25 -40 -7 -4
-11 -14 -8 -22 4 -8 1 -15 -5 -15 -6 0 -11 -6 -11 -14 0 -8 -7 -17 -16 -20 -8
-3 -13 -10 -10 -15 4 -5 -1 -17 -10 -25 -8 -9 -12 -16 -7 -16 4 0 1 -6 -7 -13
-8 -7 -16 -19 -18 -27 -2 -8 -7 -16 -12 -18 -5 -2 -6 -10 -3 -18 3 -8 0 -14
-6 -14 -6 0 -11 -7 -11 -16 0 -18 58 -44 99 -44 16 0 31 -4 33 -9 2 -5 48 -17
103 -25 117 -19 122 -20 419 -80 126 -25 237 -46 247 -46 11 0 19 -4 19 -9 0
-4 19 -11 43 -15 126 -18 221 -35 322 -56 28 -6 73 -15 100 -20 28 -5 79 -16
115 -23 36 -8 86 -18 113 -21 26 -4 45 -11 42 -15 -2 -5 28 -2 68 6 39 8 81
16 92 18 11 2 43 15 71 29 29 14 55 26 58 26 15 0 106 67 111 81 3 8 14 25 24
36 27 29 52 107 58 183 7 89 -15 176 -80 313 -29 62 -69 148 -88 192 -19 44
-37 82 -41 83 -5 2 -8 8 -8 12 0 5 -26 65 -59 133 -32 68 -64 140 -71 161 -6
20 -16 36 -21 36 -5 0 -9 5 -9 10 0 6 -22 60 -50 119 -31 70 -49 122 -48 143
1 32 3 34 30 30 15 -2 28 -7 28 -11 0 -4 16 -5 36 -3 22 3 34 1 31 -5 -4 -6
30 -15 81 -22 48 -7 103 -16 122 -21 19 -4 144 -29 277 -55 133 -27 240 -52
237 -56 -3 -5 4 -9 14 -9 27 0 36 -14 65 -105 27 -86 39 -137 58 -255 7 -41
18 -88 25 -105 13 -29 13 -28 14 31 1 186 -82 454 -206 665 l-44 76 -413 83
c-402 80 -486 91 -540 71 -14 -6 -37 -8 -52 -5 -17 3 -24 1 -20 -6 3 -5 0 -10
-7 -10 -18 0 -83 -64 -83 -82 -1 -7 -6 -12 -12 -11 -21 4 -46 -107 -46 -208 0
-98 17 -189 35 -189 6 0 8 -7 4 -15 -3 -8 -2 -15 3 -15 4 0 24 -37 45 -82 21
-46 42 -91 47 -100 5 -10 9 -25 9 -33 0 -8 4 -15 9 -15 5 0 12 -15 15 -34 4
-19 13 -39 21 -46 7 -6 11 -19 8 -28 -3 -9 -2 -13 2 -9 9 8 85 -143 85 -169 0
-8 5 -14 10 -14 6 0 10 -7 10 -15 0 -8 4 -23 9 -33 5 -9 15 -32 21 -49 7 -18
17 -33 22 -33 6 0 8 -6 5 -14 -3 -8 -2 -16 3 -18 5 -2 10 -10 12 -18 2 -8 6
-17 9 -20 6 -5 53 -104 70 -147 5 -13 14 -34 20 -47 6 -13 9 -30 6 -38 -4 -9
-6 -7 -6 5 -1 22 -20 22 -28 1 -6 -15 -8 -15 -21 2 -10 14 -16 15 -19 6 -4
-10 -8 -10 -19 -1 -8 7 -17 9 -20 6 -4 -3 -24 1 -46 10 -21 8 -41 13 -44 10
-3 -3 -20 -1 -37 5 -18 5 -45 11 -62 13 -30 4 -64 11 -190 39 -38 9 -87 16
-108 16 -23 0 -36 4 -32 10 6 9 -29 15 -62 11 -7 -1 -21 3 -32 8 -11 6 -41 13
-67 16 -26 4 -51 8 -56 11 -4 3 -26 7 -48 10 -23 3 -52 9 -66 14 -14 6 -40 10
-59 10 -19 0 -37 4 -40 10 -3 5 -19 8 -35 6 -27 -3 -30 -1 -30 25 0 15 5 31
10 34 5 3 10 15 10 26 0 10 4 19 8 19 5 0 17 19 28 43 10 23 24 47 30 52 12
11 73 118 119 210 17 32 38 69 48 81 19 22 55 87 109 194 18 36 39 69 46 73 6
4 12 12 12 17 0 5 18 39 40 75 22 36 40 72 40 80 0 8 3 15 8 15 4 0 16 19 26
43 11 23 25 47 31 52 17 16 95 155 95 171 0 8 5 14 10 14 6 0 10 5 10 10 0 6
12 29 27 53 71 109 81 154 41 175 -31 16 -105 31 -151 32 -23 0 -36 4 -32 10
6 9 -17 13 -70 12 -11 0 -23 5 -26 10 -4 5 -27 10 -53 10 -25 1 -46 4 -46 8 0
8 -8 9 -72 15 -27 2 -54 7 -60 11 -12 8 -60 17 -152 29 -43 5 -62 17 -52 34
12 19 211 76 361 102 39 7 86 18 105 25 34 12 33 13 -35 12 -38 0 -108 -7
-155 -15z m-115 -319 c215 -42 391 -78 393 -79 2 -2 -446 -793 -751 -1323 -38
-67 -68 -124 -66 -126 15 -11 1282 -256 1302 -251 14 4 36 18 49 32 19 20 23
35 23 81 0 53 -16 91 -226 542 -125 267 -232 503 -240 525 -7 22 -14 81 -14
130 0 82 3 96 33 157 49 99 137 158 236 158 17 0 198 -34 401 -75 490 -98 475
-95 475 -109 0 -15 105 -202 128 -228 8 -10 11 -18 5 -18 -5 0 -222 43 -482
95 -261 52 -484 95 -497 95 -13 0 -38 -13 -56 -29 -30 -27 -33 -34 -32 -88 0
-54 14 -88 213 -513 117 -250 224 -483 237 -517 62 -162 29 -330 -83 -422 -20
-17 -33 -31 -27 -31 22 0 96 74 119 120 48 95 51 234 6 347 -10 26 -114 253
-231 503 -219 470 -236 516 -208 570 18 33 61 53 98 45 27 -6 30 -11 30 -44 0
-29 58 -163 229 -532 126 -272 234 -518 241 -547 7 -31 10 -88 8 -132 -6 -97
-48 -193 -106 -238 -45 -35 -173 -101 -193 -99 -8 1 -39 -5 -70 -12 -55 -13
-60 -13 -890 154 -459 92 -836 169 -838 170 -2 2 182 328 408 723 226 396 411
722 411 726 0 3 -9 6 -20 6 -25 0 -661 128 -667 134 -3 2 6 10 18 17 40 21
199 150 199 161 0 6 10 8 23 5 12 -3 198 -40 412 -83z"/>
<path d="M1561 2980 c8 -5 56 -16 105 -25 352 -64 607 -180 815 -373 58 -53
67 -79 25 -69 -96 25 -157 36 -188 37 -21 0 -38 5 -38 10 0 6 -20 10 -45 10
-25 0 -45 4 -45 8 0 5 -6 9 -12 10 -81 11 -113 14 -173 15 -75 2 -97 -2 -132
-21 -13 -7 -23 -9 -23 -5 0 4 -6 1 -13 -7 -7 -8 -32 -25 -55 -36 -75 -37 -31
-34 53 3 126 55 152 54 498 -16 164 -33 302 -63 308 -66 5 -4 7 -10 5 -14 -3
-4 10 -23 29 -41 73 -71 25 7 -65 105 -123 135 -283 256 -443 337 -106 53
-290 113 -406 132 -105 18 -226 21 -200 6z"/>
<path d="M2973 1415 c-7 -22 -19 -78 -27 -125 -21 -122 -32 -164 -64 -260 -28
-82 -111 -259 -136 -290 -6 -8 -18 -27 -26 -42 -49 -98 -259 -313 -395 -403
-193 -128 -374 -198 -654 -250 -110 -20 -134 -34 -60 -35 139 0 395 68 556
148 287 145 530 388 675 675 84 167 154 438 146 567 l-3 55 -12 -40z"/>
<path d="M10 1389 c0 -139 68 -395 148 -556 145 -287 388 -530 675 -675 162
-81 419 -149 556 -147 55 1 55 1 26 14 -16 7 -71 20 -121 28 -341 59 -596 188
-824 416 -233 234 -355 476 -419 833 -24 132 -40 168 -41 87z"/>
</g>
</svg>
