{
    "asset" : {
        "generator" : "Khronos glTF Blender I/O v1.7.33",
        "version" : "2.0"
    },
    "scene" : 0,
    "scenes" : [
        {
            "name" : "Scene",
            "nodes" : [
                0
            ]
        }
    ],
    "nodes" : [
        {
            "mesh" : 0,
            "name" : "Text.001"
        }
    ],
    "materials" : [
        {
            "doubleSided" : true,
            "emissiveFactor" : [
                0.43965721130371094,
                0.423267662525177,
                0.3915725648403168
            ],
            "name" : "Material.003",
            "pbrMetallicRoughness" : {}
        }
    ],
    "meshes" : [
        {
            "name" : "Text.001",
            "primitives" : [
                {
                    "attributes" : {
                        "POSITION" : 0,
                        "NORMAL" : 1,
                        "TEXCOORD_0" : 2
                    },
                    "indices" : 3,
                    "material" : 0
                }
            ]
        }
    ],
    "accessors" : [
        {
            "bufferView" : 0,
            "componentType" : 5126,
            "count" : 12423,
            "max" : [
                1.915423035621643,
                0.31948766112327576,
                0.09839536249637604
            ],
            "min" : [
                -1.9176740646362305,
                -0.36828556656837463,
                -0.14138463139533997
            ],
            "type" : "VEC3"
        },
        {
            "bufferView" : 1,
            "componentType" : 5126,
            "count" : 12423,
            "type" : "VEC3"
        },
        {
            "bufferView" : 2,
            "componentType" : 5126,
            "count" : 12423,
            "type" : "VEC2"
        },
        {
            "bufferView" : 3,
            "componentType" : 5123,
            "count" : 35400,
            "type" : "SCALAR"
        }
    ],
    "bufferViews" : [
        {
            "buffer" : 0,
            "byteLength" : 149076,
            "byteOffset" : 0
        },
        {
            "buffer" : 0,
            "byteLength" : 149076,
            "byteOffset" : 149076
        },
        {
            "buffer" : 0,
            "byteLength" : 99384,
            "byteOffset" : 298152
        },
        {
            "buffer" : 0,
            "byteLength" : 70800,
            "byteOffset" : 397536
        }
    ],
    "buffers" : [
        {
            "byteLength" : 468336,
            "uri" : "data:application/octet-stream;base64,"
        }
    ]
}
