{
    "asset" : {
        "generator" : "Khronos glTF Blender I/O v1.7.33",
        "version" : "2.0"
    },
    "scene" : 0,
    "scenes" : [
        {
            "name" : "Scene",
            "nodes" : [
                0
            ]
        }
    ],
    "nodes" : [
        {
            "mesh" : 0,
            "name" : "Text.001",
            "rotation" : [
                0.7071068286895752,
                0,
                0,
                0.7071068286895752
            ]
        }
    ],
    "materials" : [
        {
            "doubleSided" : true,
            "emissiveFactor" : [
                0.03189604729413986,
                0.02842603623867035,
                0.022173885256052017
            ],
            "name" : "Material",
            "pbrMetallicRoughness" : {}
        },
        {
            "doubleSided" : true,
            "emissiveFactor" : [
                0.43965721130371094,
                0.423267662525177,
                0.3915725648403168
            ],
            "name" : "Material.003",
            "pbrMetallicRoughness" : {}
        }
    ],
    "meshes" : [
        {
            "name" : "Text.001",
            "primitives" : [
                {
                    "attributes" : {
                        "POSITION" : 0,
                        "NORMAL" : 1,
                        "TEXCOORD_0" : 2
                    },
                    "indices" : 3,
                    "material" : 0
                },
                {
                    "attributes" : {
                        "POSITION" : 4,
                        "NORMAL" : 5,
                        "TEXCOORD_0" : 6
                    },
                    "indices" : 7,
                    "material" : 1
                }
            ]
        }
    ],
    "accessors" : [
        {
            "bufferView" : 0,
            "componentType" : 5126,
            "count" : 1434,
            "max" : [
                1.9038763046264648,
                0.10000000149011612,
                0.326790988445282
            ],
            "min" : [
                -1.9038763046264648,
                0.10000000149011612,
                -0.326790988445282
            ],
            "type" : "VEC3"
        },
        {
            "bufferView" : 1,
            "componentType" : 5126,
            "count" : 1434,
            "type" : "VEC3"
        },
        {
            "bufferView" : 2,
            "componentType" : 5126,
            "count" : 1434,
            "type" : "VEC2"
        },
        {
            "bufferView" : 3,
            "componentType" : 5123,
            "count" : 4272,
            "type" : "SCALAR"
        },
        {
            "bufferView" : 4,
            "componentType" : 5126,
            "count" : 4648,
            "max" : [
                1.9038763046264648,
                0.10000000149011612,
                0.326790988445282
            ],
            "min" : [
                -1.9038763046264648,
                -0.10000000149011612,
                -0.326790988445282
            ],
            "type" : "VEC3"
        },
        {
            "bufferView" : 5,
            "componentType" : 5126,
            "count" : 4648,
            "type" : "VEC3"
        },
        {
            "bufferView" : 6,
            "componentType" : 5126,
            "count" : 4648,
            "type" : "VEC2"
        },
        {
            "bufferView" : 7,
            "componentType" : 5123,
            "count" : 13428,
            "type" : "SCALAR"
        }
    ],
    "bufferViews" : [
        {
            "buffer" : 0,
            "byteLength" : 17208,
            "byteOffset" : 0
        },
        {
            "buffer" : 0,
            "byteLength" : 17208,
            "byteOffset" : 17208
        },
        {
            "buffer" : 0,
            "byteLength" : 11472,
            "byteOffset" : 34416
        },
        {
            "buffer" : 0,
            "byteLength" : 8544,
            "byteOffset" : 45888
        },
        {
            "buffer" : 0,
            "byteLength" : 55776,
            "byteOffset" : 54432
        },
        {
            "buffer" : 0,
            "byteLength" : 55776,
            "byteOffset" : 110208
        },
        {
            "buffer" : 0,
            "byteLength" : 37184,
            "byteOffset" : 165984
        },
        {
            "buffer" : 0,
            "byteLength" : 26856,
            "byteOffset" : 203168
        }
    ],
    "buffers" : [
        {
            "byteLength" : 230024,
            "uri" : "data:application/octet-stream;base64,"
        }
    ]
}
